<mxfile host="app.diagrams.net" modified="2022-10-05T08:51:18.753Z" agent="5.0 (Windows)" etag="7saOGx8mj5XYdY5WnJ3f" version="20.4.0" type="github">
  <diagram id="onI8_fk-9GqHsLF6l-L-" name="Page-1">
    <mxGraphModel dx="813" dy="451" grid="1" gridSize="10" guides="1" tooltips="1" connect="1" arrows="1" fold="1" page="1" pageScale="1" pageWidth="850" pageHeight="1100" math="0" shadow="0">
      <root>
        <mxCell id="0" />
        <mxCell id="1" parent="0" />
        <mxCell id="GnnPo5aREBZpuBomAXs_-10" value="Afdeling" style="swimlane;fontStyle=1;childLayout=stackLayout;horizontal=1;startSize=26;horizontalStack=0;resizeParent=1;resizeParentMax=0;resizeLast=0;collapsible=1;marginBottom=0;align=center;fontSize=14;strokeColor=#666666;fillColor=#f5f5f5;fontColor=#333333;" vertex="1" parent="1">
          <mxGeometry x="290" y="220" width="160" height="90" as="geometry" />
        </mxCell>
        <mxCell id="GnnPo5aREBZpuBomAXs_-11" value="code&#xa;omschrijving&#xa;" style="text;strokeColor=none;fillColor=none;spacingLeft=4;spacingRight=4;overflow=hidden;rotatable=0;points=[[0,0.5],[1,0.5]];portConstraint=eastwest;fontSize=12;" vertex="1" parent="GnnPo5aREBZpuBomAXs_-10">
          <mxGeometry y="26" width="160" height="64" as="geometry" />
        </mxCell>
        <mxCell id="GnnPo5aREBZpuBomAXs_-12" value="Personeeelslid" style="swimlane;fontStyle=1;childLayout=stackLayout;horizontal=1;startSize=26;horizontalStack=0;resizeParent=1;resizeParentMax=0;resizeLast=0;collapsible=1;marginBottom=0;align=center;fontSize=14;strokeColor=#666666;fillColor=#f5f5f5;fontColor=#333333;" vertex="1" parent="1">
          <mxGeometry x="500" y="220" width="160" height="120" as="geometry" />
        </mxCell>
        <mxCell id="GnnPo5aREBZpuBomAXs_-13" value="nmr&#xa;naam&#xa;voornaam&#xa;geboorteDatum&#xa;datumInDienst&#xa;woonplaats&#xa;" style="text;strokeColor=none;fillColor=none;spacingLeft=4;spacingRight=4;overflow=hidden;rotatable=0;points=[[0,0.5],[1,0.5]];portConstraint=eastwest;fontSize=12;" vertex="1" parent="GnnPo5aREBZpuBomAXs_-12">
          <mxGeometry y="26" width="160" height="94" as="geometry" />
        </mxCell>
        <mxCell id="GnnPo5aREBZpuBomAXs_-14" value="Barema    " style="swimlane;fontStyle=1;childLayout=stackLayout;horizontal=1;startSize=26;horizontalStack=0;resizeParent=1;resizeParentMax=0;resizeLast=0;collapsible=1;marginBottom=0;align=center;fontSize=14;strokeColor=#666666;fillColor=#f5f5f5;fontColor=#333333;" vertex="1" parent="1">
          <mxGeometry x="710" y="220" width="160" height="70" as="geometry" />
        </mxCell>
        <mxCell id="GnnPo5aREBZpuBomAXs_-15" value="code&#xa;brutoloon&#xa;" style="text;strokeColor=none;fillColor=none;spacingLeft=4;spacingRight=4;overflow=hidden;rotatable=0;points=[[0,0.5],[1,0.5]];portConstraint=eastwest;fontSize=12;fontStyle=0;align=left;" vertex="1" parent="GnnPo5aREBZpuBomAXs_-14">
          <mxGeometry y="26" width="160" height="44" as="geometry" />
        </mxCell>
        <mxCell id="GnnPo5aREBZpuBomAXs_-27" style="edgeStyle=orthogonalEdgeStyle;rounded=0;orthogonalLoop=1;jettySize=auto;html=1;endArrow=none;endFill=0;" edge="1" parent="1">
          <mxGeometry relative="1" as="geometry">
            <mxPoint x="379.9950994046354" y="220.00142857142862" as="sourcePoint" />
            <mxPoint x="539.9950994046354" y="220.00142857142862" as="targetPoint" />
            <Array as="points">
              <mxPoint x="379.9950994046354" y="220.00142857142862" />
              <mxPoint x="379.9950994046354" y="170.00142857142862" />
              <mxPoint x="539.9950994046354" y="170.00142857142862" />
            </Array>
          </mxGeometry>
        </mxCell>
        <mxCell id="GnnPo5aREBZpuBomAXs_-28" value="0..N" style="edgeLabel;html=1;align=center;verticalAlign=middle;resizable=0;points=[];" vertex="1" connectable="0" parent="GnnPo5aREBZpuBomAXs_-27">
          <mxGeometry x="0.9294" y="4" relative="1" as="geometry">
            <mxPoint x="21" y="-7.49" as="offset" />
          </mxGeometry>
        </mxCell>
        <mxCell id="GnnPo5aREBZpuBomAXs_-29" value="1..1" style="edgeLabel;html=1;align=center;verticalAlign=middle;resizable=0;points=[];" vertex="1" connectable="0" parent="GnnPo5aREBZpuBomAXs_-27">
          <mxGeometry x="-0.935" y="-1" relative="1" as="geometry">
            <mxPoint x="-21" y="-13.33" as="offset" />
          </mxGeometry>
        </mxCell>
        <mxCell id="GnnPo5aREBZpuBomAXs_-30" value="werkt in" style="edgeLabel;html=1;align=center;verticalAlign=middle;resizable=0;points=[];" vertex="1" connectable="0" parent="GnnPo5aREBZpuBomAXs_-27">
          <mxGeometry x="-0.0978" y="2" relative="1" as="geometry">
            <mxPoint x="12.8" y="-8.03" as="offset" />
          </mxGeometry>
        </mxCell>
        <mxCell id="GnnPo5aREBZpuBomAXs_-31" style="edgeStyle=orthogonalEdgeStyle;rounded=0;orthogonalLoop=1;jettySize=auto;html=1;endArrow=none;endFill=0;" edge="1" parent="1">
          <mxGeometry relative="1" as="geometry">
            <mxPoint x="639.9950994046354" y="220.00142857142862" as="sourcePoint" />
            <mxPoint x="799.9950994046354" y="220.00142857142862" as="targetPoint" />
            <Array as="points">
              <mxPoint x="639.9950994046354" y="220.00142857142862" />
              <mxPoint x="639.9950994046354" y="170.00142857142862" />
              <mxPoint x="799.9950994046354" y="170.00142857142862" />
            </Array>
          </mxGeometry>
        </mxCell>
        <mxCell id="GnnPo5aREBZpuBomAXs_-32" value="0..1" style="edgeLabel;html=1;align=center;verticalAlign=middle;resizable=0;points=[];" vertex="1" connectable="0" parent="GnnPo5aREBZpuBomAXs_-31">
          <mxGeometry x="0.9294" y="4" relative="1" as="geometry">
            <mxPoint x="21" y="-7.49" as="offset" />
          </mxGeometry>
        </mxCell>
        <mxCell id="GnnPo5aREBZpuBomAXs_-33" value="0..N" style="edgeLabel;html=1;align=center;verticalAlign=middle;resizable=0;points=[];" vertex="1" connectable="0" parent="GnnPo5aREBZpuBomAXs_-31">
          <mxGeometry x="-0.935" y="-1" relative="1" as="geometry">
            <mxPoint x="-21" y="-11" as="offset" />
          </mxGeometry>
        </mxCell>
        <mxCell id="GnnPo5aREBZpuBomAXs_-34" value="Heeft" style="edgeLabel;html=1;align=center;verticalAlign=middle;resizable=0;points=[];" vertex="1" connectable="0" parent="GnnPo5aREBZpuBomAXs_-31">
          <mxGeometry x="-0.0978" y="2" relative="1" as="geometry">
            <mxPoint x="12.8" y="-8.03" as="offset" />
          </mxGeometry>
        </mxCell>
      </root>
    </mxGraphModel>
  </diagram>
</mxfile>
